<svg width="40" height="40" viewBox="0 0 40 40" fill="none" xmlns="http://www.w3.org/2000/svg">
<path fill-rule="evenodd" clip-rule="evenodd" d="M18.3444 0.49822C19.3482 -0.166073 20.6518 -0.166073 21.6556 0.49822L24.81 2.58572L28.6309 2.93705C29.8619 3.05024 30.8975 3.90699 31.2393 5.09504L32.2447 8.58979L34.8992 11.1837C35.8158 12.0794 36.0622 13.4584 35.5125 14.6161L33.9511 17.9048L34.2481 21.5032C34.3521 22.7624 33.656 23.9517 32.5072 24.4777L29.88 25.6806V36.5626C29.88 38.7991 27.5209 40.2493 25.5254 39.2394L21.3546 37.1287C20.503 36.6977 19.497 36.6977 18.6454 37.1287L14.4746 39.2394C12.4791 40.2493 10.12 38.7991 10.12 36.5626V25.6806L7.49277 24.4777C6.344 23.9517 5.64789 22.7624 5.75182 21.5032L6.04883 17.9048L4.48742 14.6161C3.93777 13.4584 4.1842 12.0794 5.10078 11.1837L7.7553 8.58979L8.76067 5.09504C9.10245 3.90699 10.138 3.05024 11.3691 2.93705L15.19 2.58572L18.3444 0.49822ZM26.8569 29.0319L26.88 29.0007L26.88 36.5626L22.7093 34.4519C21.0059 33.5899 18.9941 33.5899 17.2907 34.4519L13.12 36.5626L13.12 29.0007L13.1431 29.0319C13.865 30.0065 15.1027 30.4505 16.2795 30.157L20 29.2294L23.7204 30.157C24.8972 30.4505 26.1349 30.0065 26.8569 29.0319ZM16.2162 5.50402L11.6437 5.92444L10.4191 10.1812L7.19748 13.3294L9.10505 17.3472L8.74165 21.75L12.8888 23.6488L15.5537 27.2462L20 26.1375L24.4462 27.2462L27.1111 23.6488L31.2583 21.75L30.8949 17.3472L32.8025 13.3294L29.5808 10.1812L28.3562 5.92444L23.7838 5.50402L20 3L16.2162 5.50402ZM24 15C24 17.2091 22.2091 19 20 19C17.7909 19 16 17.2091 16 15C16 12.7909 17.7909 11 20 11C22.2091 11 24 12.7909 24 15ZM27 15C27 18.866 23.866 22 20 22C16.134 22 13 18.866 13 15C13 11.134 16.134 8 20 8C23.866 8 27 11.134 27 15Z" fill="white"/>
</svg>
