<svg width="40" height="40" viewBox="0 0 40 40" fill="none" xmlns="http://www.w3.org/2000/svg">
<path fill-rule="evenodd" clip-rule="evenodd" d="M5 0H14C16.7614 0 19 2.23858 19 5V14C19 16.7614 16.7614 19 14 19H5C2.23858 19 0 16.7614 0 14V5C0 2.23858 2.23858 0 5 0ZM5 3C3.89543 3 3 3.89543 3 5V14C3 15.1046 3.89543 16 5 16H14C15.1046 16 16 15.1046 16 14V5C16 3.89543 15.1046 3 14 3H5Z" fill="white"/>
<path fill-rule="evenodd" clip-rule="evenodd" d="M35.1962 4L38.6603 10C40.9697 14 38.0829 19 33.4641 19H26.5359C21.9171 19 19.0303 14 21.3397 10L24.8038 4C27.1132 5.96046e-06 32.8867 -5.48363e-06 35.1962 4ZM32.5981 5.5C31.4434 3.5 28.5566 3.5 27.4019 5.5L23.9378 11.5C22.7831 13.5 24.2265 16 26.5359 16H33.4641C35.7735 16 37.2169 13.5 36.0622 11.5L32.5981 5.5Z" fill="white"/>
<path fill-rule="evenodd" clip-rule="evenodd" d="M19 30.5C19 35.7467 14.7467 40 9.5 40C4.25329 40 0 35.7467 0 30.5C0 25.2533 4.25329 21 9.5 21C14.7467 21 19 25.2533 19 30.5ZM9.5 37C13.0899 37 16 34.0899 16 30.5C16 26.9101 13.0899 24 9.5 24C5.91015 24 3 26.9101 3 30.5C3 34.0899 5.91015 37 9.5 37Z" fill="white"/>
<path fill-rule="evenodd" clip-rule="evenodd" d="M27.9678 26.3758C27.8221 26.6896 27.5246 26.9057 27.1812 26.9474L24.5292 27.2688C23.6845 27.3712 23.3455 28.4146 23.9687 28.9939L25.9252 30.8128C26.1786 31.0483 26.2923 31.3981 26.2257 31.7375L25.7119 34.359C25.5482 35.1941 26.4358 35.8389 27.1794 35.4253L29.5138 34.1265C29.8161 33.9583 30.1839 33.9583 30.4862 34.1265L32.8206 35.4253C33.5642 35.8389 34.4518 35.1941 34.2881 34.359L33.7743 31.7375C33.7077 31.3981 33.8214 31.0483 34.0748 30.8128L36.0313 28.9939C36.6546 28.4146 36.3155 27.3712 35.4708 27.2688L32.8188 26.9474C32.4754 26.9057 32.1779 26.6896 32.0322 26.3758L30.907 23.953C30.5486 23.1812 29.4514 23.1812 29.093 23.953L27.9678 26.3758ZM34.2844 24.103L35.8318 24.2906C39.2106 24.7001 40.5667 28.8739 38.0739 31.1912L36.9323 32.2524L37.2321 33.782C37.8868 37.122 34.3363 39.7016 31.3621 38.0468L30 37.289L28.6379 38.0468C25.6637 39.7016 22.1133 37.122 22.7679 33.782L23.0677 32.2524L21.9261 31.1912C19.4333 28.8739 20.7894 24.7001 24.1682 24.2906L25.7156 24.103L26.3721 22.6894C27.8057 19.6024 32.1943 19.6024 33.6279 22.6894L34.2844 24.103Z" fill="white"/>
</svg>
