<svg width="184" height="65" viewBox="0 0 184 65" fill="none" xmlns="http://www.w3.org/2000/svg">
<path d="M12.9633 48.6708C12.2081 48.6708 11.619 48.4593 11.1961 48.0364C10.8034 47.6135 10.607 47.0093 10.607 46.2239V31.8596L11.6492 34.8503L0.456907 19.3079C0.124611 18.8547 -0.0264326 18.3865 0.00377609 17.9032C0.0339848 17.3896 0.230341 16.9667 0.592846 16.6344C0.98556 16.2719 1.49911 16.0907 2.13349 16.0907C2.61683 16.0907 3.05486 16.2115 3.44757 16.4532C3.87049 16.6948 4.26321 17.0724 4.62571 17.586L13.5977 30.0471H12.5102L21.4822 17.586C21.8749 17.0422 22.2525 16.6646 22.615 16.4532C22.9775 16.2115 23.4306 16.0907 23.9744 16.0907C24.6088 16.0907 25.0921 16.2568 25.4244 16.5891C25.7869 16.8912 25.9682 17.299 25.9682 17.8125C25.9984 18.2959 25.8171 18.8094 25.4244 19.3532L14.3227 34.8503L15.2743 31.8596V46.2239C15.2743 47.8551 14.504 48.6708 12.9633 48.6708Z" fill="#FFCF59"/>
<path d="M27.283 48.6708C26.6788 48.6708 26.1954 48.5348 25.8329 48.2629C25.4704 47.9911 25.259 47.6286 25.1986 47.1754C25.1381 46.7223 25.2288 46.2088 25.4704 45.6348L37.7503 18.0844C38.0524 17.3594 38.43 16.8459 38.8831 16.5438C39.3665 16.2417 39.8951 16.0907 40.4691 16.0907C41.0128 16.0907 41.5113 16.2417 41.9644 16.5438C42.4477 16.8459 42.8405 17.3594 43.1425 18.0844L55.4224 45.6348C55.6943 46.2088 55.8 46.7374 55.7396 47.2207C55.6792 47.6739 55.4828 48.0364 55.1505 48.3083C54.8182 48.5499 54.35 48.6708 53.7458 48.6708C53.0812 48.6708 52.5526 48.5046 52.1598 48.1723C51.7671 47.84 51.4197 47.3265 51.1176 46.6317L47.9457 39.291L50.0754 40.5597H30.7721L32.8565 39.291L29.7299 46.6317C29.4278 47.3567 29.0955 47.8853 28.733 48.2176C28.3705 48.5197 27.8871 48.6708 27.283 48.6708ZM40.3784 21.6188L33.5362 37.8409L32.4033 36.7534H48.3989L47.3567 37.8409L40.4691 21.6188H40.3784Z" fill="#FFCF59"/>
<path d="M64.3828 48.3535C62.963 48.3535 61.8754 47.991 61.1202 47.266C60.3952 46.5108 60.0327 45.4384 60.0327 44.0488V20.7126C60.0327 19.323 60.3952 18.2657 61.1202 17.5406C61.8754 16.7854 62.963 16.4078 64.3828 16.4078H79.7439C80.8314 16.4078 81.6471 16.6797 82.1908 17.2235C82.7346 17.7672 83.0065 18.5526 83.0065 19.5797C83.0065 20.637 82.7346 21.4527 82.1908 22.0266C81.6471 22.5704 80.8314 22.8423 79.7439 22.8423H68.0078V28.9142H78.747C79.8043 28.9142 80.6049 29.1861 81.1486 29.7299C81.7226 30.2736 82.0096 31.0742 82.0096 32.1315C82.0096 33.1888 81.7226 33.9893 81.1486 34.5331C80.6049 35.0768 79.8043 35.3487 78.747 35.3487H68.0078V41.9191H79.7439C80.8314 41.9191 81.6471 42.2061 82.1908 42.78C82.7346 43.3238 83.0065 44.1092 83.0065 45.1363C83.0065 46.1936 82.7346 46.9942 82.1908 47.5379C81.6471 48.0817 80.8314 48.3535 79.7439 48.3535H64.3828Z" fill="#525FE1"/>
<path d="M92.2167 48.3535C90.7969 48.3535 89.7094 47.991 88.9541 47.266C88.2291 46.5108 87.8666 45.4384 87.8666 44.0488V20.7126C87.8666 19.323 88.2291 18.2657 88.9541 17.5406C89.7094 16.7854 90.7969 16.4078 92.2167 16.4078H101.098C106.656 16.4078 110.946 17.7974 113.967 20.5766C117.018 23.3558 118.544 27.283 118.544 32.358C118.544 34.8956 118.151 37.1612 117.365 39.155C116.58 41.1186 115.447 42.7951 113.967 44.1847C112.487 45.5441 110.659 46.5863 108.484 47.3113C106.339 48.0061 103.877 48.3535 101.098 48.3535H92.2167ZM96.2042 41.6019H100.554C102.155 41.6019 103.53 41.4055 104.678 41.0128C105.856 40.6201 106.823 40.0461 107.578 39.2909C108.363 38.5357 108.937 37.5841 109.3 36.4362C109.692 35.2883 109.889 33.9289 109.889 32.358C109.889 29.2163 109.118 26.9053 107.578 25.4251C106.037 23.9147 103.696 23.1595 100.554 23.1595H96.2042V41.6019Z" fill="#525FE1"/>
<path d="M137.626 48.852C135.3 48.852 133.246 48.565 131.464 47.991C129.682 47.3869 128.171 46.4957 126.933 45.3176C125.724 44.1394 124.803 42.6743 124.168 40.9222C123.564 39.1399 123.262 37.0857 123.262 34.7596V20.2141C123.262 18.8245 123.625 17.7823 124.35 17.0875C125.075 16.3625 126.102 16 127.431 16C128.79 16 129.817 16.3625 130.512 17.0875C131.237 17.7823 131.6 18.8245 131.6 20.2141V34.8502C131.6 37.1763 132.113 38.9284 133.14 40.1066C134.168 41.2847 135.663 41.8738 137.626 41.8738C139.56 41.8738 141.04 41.2847 142.067 40.1066C143.094 38.9284 143.608 37.1763 143.608 34.8502V20.2141C143.608 18.8245 143.955 17.7823 144.65 17.0875C145.375 16.3625 146.402 16 147.731 16C149.06 16 150.072 16.3625 150.767 17.0875C151.462 17.7823 151.809 18.8245 151.809 20.2141V34.7596C151.809 37.8711 151.266 40.4842 150.178 42.5988C149.121 44.6832 147.535 46.254 145.42 47.3113C143.306 48.3384 140.708 48.852 137.626 48.852Z" fill="#525FE1"/>
</svg>
