<svg width="40" height="40" viewBox="0 0 40 40" fill="none" xmlns="http://www.w3.org/2000/svg">
<path fill-rule="evenodd" clip-rule="evenodd" d="M20 20.518L25.0529 12.5867C27.6783 8.46576 24.7975 3 20 3C15.2026 3 12.3217 8.46576 14.9471 12.5867L20 20.518ZM17.9928 22.8494C18.9394 24.3352 21.0606 24.3352 22.0072 22.8494L27.4994 14.2285C31.396 8.1122 27.1203 6.38855e-07 20 0C12.8797 -6.38856e-07 8.60404 8.1122 12.5006 14.2285L17.9928 22.8494ZM21.0288 31.9543C25.2116 27.7163 31.9959 27.9217 35.9281 32.4058L36.4521 33.0034C36.9921 33.6191 37.9162 33.6691 38.5162 33.1149C39.1162 32.5607 39.1648 31.6123 38.6248 30.9965L38.1008 30.3989C33.363 24.9961 25.3998 24.4323 20 28.882C14.6002 24.4323 6.63703 24.9962 1.89927 30.3989L1.3752 30.9965C0.835219 31.6123 0.883857 32.5607 1.48383 33.1149C2.08381 33.6691 3.00793 33.6191 3.5479 33.0034L4.07197 32.4058C8.00471 27.9211 14.7903 27.7163 18.973 31.9561C19.5436 32.5344 20.4607 32.5323 21.0288 31.9543ZM6.55384 38.9C9.62307 34.7 15.7615 34.7 18.8308 38.9C19.3151 39.5627 20.2312 39.697 20.8769 39.2C20.9993 39.1058 21.1032 38.9956 21.1879 38.8745C24.2633 34.7 30.3831 34.7085 33.4462 38.9C33.9305 39.5627 34.8466 39.697 35.4923 39.2C36.1381 38.7029 36.2689 37.7627 35.7846 37.1C31.9069 31.7937 24.4816 31.342 20 35.745C15.5184 31.342 8.09307 31.7937 4.21538 37.1C3.73107 37.7627 3.86194 38.7029 4.50769 39.2C5.15344 39.697 6.06953 39.5627 6.55384 38.9ZM20 11C21.0762 11 21.9487 10.1045 21.9487 8.99998C21.9487 7.89541 21.0762 6.99998 20 6.99998C18.9238 6.99998 18.0513 7.89541 18.0513 8.99998C18.0513 10.1045 18.9238 11 20 11Z" fill="white"/>
</svg>
