<svg width="40" height="40" viewBox="0 0 40 40" fill="none" xmlns="http://www.w3.org/2000/svg">
<path fill-rule="evenodd" clip-rule="evenodd" d="M20 14.2973C23.1197 14.2973 25.6487 11.7683 25.6487 8.64865C25.6487 5.52899 23.1197 3 20 3C16.8803 3 14.3514 5.52899 14.3514 8.64865C14.3514 11.7683 16.8803 14.2973 20 14.2973ZM20 17.2973C24.7765 17.2973 28.6487 13.4252 28.6487 8.64865C28.6487 3.87213 24.7765 0 20 0C15.2235 0 11.3514 3.87213 11.3514 8.64865C11.3514 13.4252 15.2235 17.2973 20 17.2973Z" fill="white"/>
<path fill-rule="evenodd" clip-rule="evenodd" d="M32.1351 36.4173V34.5946C32.1351 27.8925 26.7021 22.4594 20 22.4594C13.298 22.4594 7.86487 27.8925 7.86487 34.5946V36.4173C7.86487 36.7391 8.12573 37 8.44752 37H31.5525C31.8743 37 32.1351 36.7391 32.1351 36.4173ZM20 19.4594C11.6411 19.4594 4.86487 26.2357 4.86487 34.5946V36.4173C4.86487 38.396 6.46888 40 8.44752 40H31.5525C33.5311 40 35.1351 38.396 35.1351 36.4173V34.5946C35.1351 26.2357 28.3589 19.4594 20 19.4594Z" fill="white"/>
</svg>
