<svg width="186" height="33" viewBox="0 0 186 33" fill="none" xmlns="http://www.w3.org/2000/svg">
<path d="M13.895 3.99728C14.8393 2.32202 17.2517 2.32203 18.196 3.99728L20.5836 8.23346C20.9359 8.85844 21.5426 9.29925 22.2459 9.44114L27.0126 10.4029C28.8976 10.7833 29.6431 13.0776 28.3416 14.4934L25.0506 18.0732C24.5651 18.6014 24.3333 19.3146 24.4157 20.0273L24.974 24.8579C25.1948 26.7682 23.2431 28.1862 21.4945 27.3859L17.0728 25.3622C16.4205 25.0637 15.6705 25.0637 15.0182 25.3622L10.5965 27.3859C8.84793 28.1862 6.89622 26.7682 7.11701 24.8579L7.67529 20.0273C7.75766 19.3146 7.52591 18.6014 7.04038 18.0732L3.74937 14.4934C2.44789 13.0776 3.19337 10.7833 5.07843 10.4029L9.84511 9.44114C10.5484 9.29925 11.1551 8.85844 11.5073 8.23347L13.895 3.99728Z" fill="#FFCF59"/>
<path d="M52.3726 3.99728C53.3168 2.32202 55.7293 2.32203 56.6735 3.99728L59.0612 8.23346C59.4135 8.85844 60.0202 9.29925 60.7234 9.44114L65.4901 10.4029C67.3752 10.7833 68.1206 13.0776 66.8192 14.4934L63.5282 18.0732C63.0426 18.6014 62.8109 19.3146 62.8932 20.0273L63.4515 24.8579C63.6723 26.7682 61.7206 28.1862 59.972 27.3859L55.5503 25.3622C54.898 25.0637 54.1481 25.0637 53.4957 25.3622L49.0741 27.3859C47.3255 28.1862 45.3738 26.7682 45.5945 24.8579L46.1528 20.0273C46.2352 19.3146 46.0034 18.6014 45.5179 18.0732L42.2269 14.4934C40.9254 13.0776 41.6709 10.7833 43.556 10.4029L48.3226 9.44114C49.0259 9.29925 49.6326 8.85844 49.9849 8.23347L52.3726 3.99728Z" fill="#FFCF59"/>
<path d="M90.8496 3.99728C91.7939 2.32202 94.2063 2.32203 95.1506 3.99728L97.5382 8.23346C97.8905 8.85844 98.4972 9.29925 99.2005 9.44114L103.967 10.4029C105.852 10.7833 106.598 13.0776 105.296 14.4934L102.005 18.0732C101.52 18.6014 101.288 19.3146 101.37 20.0273L101.929 24.8579C102.149 26.7682 100.198 28.1862 98.449 27.3859L94.0274 25.3622C93.3751 25.0637 92.6251 25.0637 91.9728 25.3622L87.5511 27.3859C85.8025 28.1862 83.8508 26.7682 84.0716 24.8579L84.6299 20.0273C84.7122 19.3146 84.4805 18.6014 83.995 18.0732L80.704 14.4934C79.4025 13.0776 80.148 10.7833 82.033 10.4029L86.7997 9.44114C87.5029 9.29925 88.1097 8.85844 88.4619 8.23347L90.8496 3.99728Z" fill="#FFCF59"/>
<path d="M129.327 3.99728C130.271 2.32202 132.684 2.32203 133.628 3.99728L136.016 8.23346C136.368 8.85844 136.975 9.29925 137.678 9.44114L142.444 10.4029C144.33 10.7833 145.075 13.0776 143.774 14.4934L140.482 18.0732C139.997 18.6014 139.765 19.3146 139.848 20.0273L140.406 24.8579C140.627 26.7682 138.675 28.1862 136.926 27.3859L132.505 25.3622C131.852 25.0637 131.102 25.0637 130.45 25.3622L126.028 27.3859C124.28 28.1862 122.328 26.7682 122.549 24.8579L123.107 20.0273C123.19 19.3146 122.958 18.6014 122.472 18.0732L119.181 14.4934C117.88 13.0776 118.625 10.7833 120.51 10.4029L125.277 9.44114C125.98 9.29925 126.587 8.85844 126.939 8.23347L129.327 3.99728Z" fill="#DBDBDB"/>
<path d="M167.804 3.99728C168.748 2.32202 171.161 2.32203 172.105 3.99728L174.493 8.23346C174.845 8.85844 175.452 9.29925 176.155 9.44114L180.922 10.4029C182.807 10.7833 183.552 13.0776 182.251 14.4934L178.96 18.0732C178.474 18.6014 178.243 19.3146 178.325 20.0273L178.883 24.8579C179.104 26.7682 177.152 28.1862 175.404 27.3859L170.982 25.3622C170.33 25.0637 169.58 25.0637 168.927 25.3622L164.506 27.3859C162.757 28.1862 160.805 26.7682 161.026 24.8579L161.584 20.0273C161.667 19.3146 161.435 18.6014 160.95 18.0732L157.659 14.4934C156.357 13.0776 157.103 10.7833 158.988 10.4029L163.754 9.44114C164.458 9.29925 165.064 8.85844 165.417 8.23347L167.804 3.99728Z" fill="#DBDBDB"/>
</svg>
