<svg width="186" height="33" viewBox="0 0 186 33" fill="none" xmlns="http://www.w3.org/2000/svg">
<path d="M13.895 3.9063C14.8393 2.23104 17.2517 2.23104 18.196 3.9063L20.5836 8.14248C20.9359 8.76745 21.5426 9.20826 22.2459 9.35016L27.0126 10.3119C28.8976 10.6923 29.6431 12.9866 28.3416 14.4024L25.0506 17.9822C24.5651 18.5104 24.3333 19.2236 24.4157 19.9363L24.974 24.7669C25.1948 26.6772 23.2431 28.0952 21.4945 27.2949L17.0728 25.2712C16.4205 24.9727 15.6705 24.9727 15.0182 25.2712L10.5965 27.2949C8.84793 28.0952 6.89622 26.6772 7.11701 24.7669L7.67529 19.9363C7.75766 19.2236 7.52591 18.5104 7.04038 17.9822L3.74937 14.4024C2.44789 12.9866 3.19337 10.6923 5.07843 10.3119L9.84511 9.35016C10.5484 9.20826 11.1551 8.76745 11.5073 8.14248L13.895 3.9063Z" fill="#FFCF59"/>
<path d="M52.3726 3.9063C53.3168 2.23104 55.7293 2.23104 56.6735 3.9063L59.0612 8.14248C59.4135 8.76745 60.0202 9.20826 60.7234 9.35016L65.4901 10.3119C67.3752 10.6923 68.1206 12.9866 66.8192 14.4024L63.5282 17.9822C63.0426 18.5104 62.8109 19.2236 62.8932 19.9363L63.4515 24.7669C63.6723 26.6772 61.7206 28.0952 59.972 27.2949L55.5503 25.2712C54.898 24.9727 54.1481 24.9727 53.4957 25.2712L49.0741 27.2949C47.3255 28.0952 45.3738 26.6772 45.5945 24.7669L46.1528 19.9363C46.2352 19.2236 46.0034 18.5104 45.5179 17.9822L42.2269 14.4024C40.9254 12.9866 41.6709 10.6923 43.556 10.3119L48.3226 9.35016C49.0259 9.20826 49.6326 8.76745 49.9849 8.14248L52.3726 3.9063Z" fill="#FFCF59"/>
<path d="M90.8496 3.9063C91.7939 2.23104 94.2063 2.23104 95.1506 3.9063L97.5382 8.14248C97.8905 8.76745 98.4972 9.20826 99.2005 9.35016L103.967 10.3119C105.852 10.6923 106.598 12.9866 105.296 14.4024L102.005 17.9822C101.52 18.5104 101.288 19.2236 101.37 19.9363L101.929 24.7669C102.149 26.6772 100.198 28.0952 98.449 27.2949L94.0274 25.2712C93.3751 24.9727 92.6251 24.9727 91.9728 25.2712L87.5511 27.2949C85.8025 28.0952 83.8508 26.6772 84.0716 24.7669L84.6299 19.9363C84.7122 19.2236 84.4805 18.5104 83.995 17.9822L80.704 14.4024C79.4025 12.9866 80.148 10.6923 82.033 10.3119L86.7997 9.35016C87.5029 9.20826 88.1097 8.76745 88.4619 8.14248L90.8496 3.9063Z" fill="#FFCF59"/>
<path d="M129.327 3.9063C130.271 2.23104 132.684 2.23104 133.628 3.9063L136.016 8.14248C136.368 8.76745 136.975 9.20826 137.678 9.35016L142.444 10.3119C144.33 10.6923 145.075 12.9866 143.774 14.4024L140.482 17.9822C139.997 18.5104 139.765 19.2236 139.848 19.9363L140.406 24.7669C140.627 26.6772 138.675 28.0952 136.926 27.2949L132.505 25.2712C131.852 24.9727 131.102 24.9727 130.45 25.2712L126.028 27.2949C124.28 28.0952 122.328 26.6772 122.549 24.7669L123.107 19.9363C123.19 19.2236 122.958 18.5104 122.472 17.9822L119.181 14.4024C117.88 12.9866 118.625 10.6923 120.51 10.3119L125.277 9.35016C125.98 9.20826 126.587 8.76745 126.939 8.14248L129.327 3.9063Z" fill="#FFCF59"/>
<path d="M167.804 3.9063C168.748 2.23104 171.161 2.23104 172.105 3.9063L174.493 8.14248C174.845 8.76745 175.452 9.20826 176.155 9.35016L180.922 10.3119C182.807 10.6923 183.552 12.9866 182.251 14.4024L178.96 17.9822C178.474 18.5104 178.243 19.2236 178.325 19.9363L178.883 24.7669C179.104 26.6772 177.152 28.0952 175.404 27.2949L170.982 25.2712C170.33 24.9727 169.58 24.9727 168.927 25.2712L164.506 27.2949C162.757 28.0952 160.805 26.6772 161.026 24.7669L161.584 19.9363C161.667 19.2236 161.435 18.5104 160.95 17.9822L157.659 14.4024C156.357 12.9866 157.103 10.6923 158.988 10.3119L163.754 9.35016C164.458 9.20826 165.064 8.76745 165.417 8.14248L167.804 3.9063Z" fill="#DBDBDB"/>
</svg>
