<svg width="186" height="33" viewBox="0 0 186 33" fill="none" xmlns="http://www.w3.org/2000/svg">
<path d="M13.895 3.81531C14.8393 2.14005 17.2517 2.14005 18.196 3.81531L20.5836 8.05149C20.9359 8.67646 21.5426 9.11728 22.2459 9.25917L27.0126 10.2209C28.8976 10.6013 29.6431 12.8957 28.3416 14.3114L25.0506 17.8913C24.5651 18.4194 24.3333 19.1326 24.4157 19.8453L24.974 24.6759C25.1948 26.5862 23.2431 28.0042 21.4945 27.2039L17.0728 25.1802C16.4205 24.8817 15.6705 24.8817 15.0182 25.1802L10.5965 27.2039C8.84793 28.0042 6.89622 26.5862 7.11701 24.6759L7.67529 19.8453C7.75766 19.1326 7.52591 18.4194 7.04038 17.8913L3.74937 14.3114C2.44789 12.8957 3.19337 10.6013 5.07843 10.2209L9.84511 9.25917C10.5484 9.11728 11.1551 8.67646 11.5073 8.05149L13.895 3.81531Z" fill="#FFCF59"/>
<path d="M52.3726 3.81531C53.3168 2.14005 55.7293 2.14005 56.6735 3.81531L59.0612 8.05149C59.4135 8.67646 60.0202 9.11728 60.7234 9.25917L65.4901 10.2209C67.3752 10.6013 68.1206 12.8957 66.8192 14.3114L63.5282 17.8913C63.0426 18.4194 62.8109 19.1326 62.8932 19.8453L63.4515 24.6759C63.6723 26.5862 61.7206 28.0042 59.972 27.2039L55.5503 25.1802C54.898 24.8817 54.1481 24.8817 53.4957 25.1802L49.0741 27.2039C47.3255 28.0042 45.3738 26.5862 45.5945 24.6759L46.1528 19.8453C46.2352 19.1326 46.0034 18.4194 45.5179 17.8913L42.2269 14.3114C40.9254 12.8957 41.6709 10.6013 43.556 10.2209L48.3226 9.25917C49.0259 9.11728 49.6326 8.67646 49.9849 8.05149L52.3726 3.81531Z" fill="#FFCF59"/>
<path d="M90.8496 3.81531C91.7939 2.14005 94.2063 2.14005 95.1506 3.81531L97.5382 8.05149C97.8905 8.67646 98.4972 9.11728 99.2005 9.25917L103.967 10.2209C105.852 10.6013 106.598 12.8957 105.296 14.3114L102.005 17.8913C101.52 18.4194 101.288 19.1326 101.37 19.8453L101.929 24.6759C102.149 26.5862 100.198 28.0042 98.449 27.2039L94.0274 25.1802C93.3751 24.8817 92.6251 24.8817 91.9728 25.1802L87.5511 27.2039C85.8025 28.0042 83.8508 26.5862 84.0716 24.6759L84.6299 19.8453C84.7122 19.1326 84.4805 18.4194 83.995 17.8913L80.704 14.3114C79.4025 12.8957 80.148 10.6013 82.033 10.2209L86.7997 9.25917C87.5029 9.11728 88.1097 8.67646 88.4619 8.05149L90.8496 3.81531Z" fill="#FFCF59"/>
<path d="M129.327 3.81531C130.271 2.14005 132.684 2.14005 133.628 3.81531L136.016 8.05149C136.368 8.67646 136.975 9.11728 137.678 9.25917L142.444 10.2209C144.33 10.6013 145.075 12.8957 143.774 14.3114L140.482 17.8913C139.997 18.4194 139.765 19.1326 139.848 19.8453L140.406 24.6759C140.627 26.5862 138.675 28.0042 136.926 27.2039L132.505 25.1802C131.852 24.8817 131.102 24.8817 130.45 25.1802L126.028 27.2039C124.28 28.0042 122.328 26.5862 122.549 24.6759L123.107 19.8453C123.19 19.1326 122.958 18.4194 122.472 17.8913L119.181 14.3114C117.88 12.8957 118.625 10.6013 120.51 10.2209L125.277 9.25917C125.98 9.11728 126.587 8.67646 126.939 8.05149L129.327 3.81531Z" fill="#FFCF59"/>
<path d="M167.804 3.81531C168.748 2.14005 171.161 2.14005 172.105 3.81531L174.493 8.05149C174.845 8.67646 175.452 9.11728 176.155 9.25917L180.922 10.2209C182.807 10.6013 183.552 12.8957 182.251 14.3114L178.96 17.8913C178.474 18.4194 178.243 19.1326 178.325 19.8453L178.883 24.6759C179.104 26.5862 177.152 28.0042 175.404 27.2039L170.982 25.1802C170.33 24.8817 169.58 24.8817 168.927 25.1802L164.506 27.2039C162.757 28.0042 160.805 26.5862 161.026 24.6759L161.584 19.8453C161.667 19.1326 161.435 18.4194 160.95 17.8913L157.659 14.3114C156.357 12.8957 157.103 10.6013 158.988 10.2209L163.754 9.25917C164.458 9.11728 165.064 8.67646 165.417 8.05149L167.804 3.81531Z" fill="#FFCF59"/>
</svg>
