<svg width="186" height="33" viewBox="0 0 186 33" fill="none" xmlns="http://www.w3.org/2000/svg">
<path d="M13.895 4.08826C14.8393 2.413 17.2517 2.413 18.196 4.08826L20.5836 8.32444C20.9359 8.94941 21.5426 9.39022 22.2459 9.53212L27.0126 10.4939C28.8976 10.8742 29.6431 13.1686 28.3416 14.5843L25.0506 18.1642C24.5651 18.6924 24.3333 19.4056 24.4157 20.1183L24.974 24.9489C25.1948 26.8592 23.2431 28.2772 21.4945 27.4769L17.0728 25.4532C16.4205 25.1546 15.6705 25.1546 15.0182 25.4532L10.5965 27.4769C8.84793 28.2772 6.89622 26.8592 7.11701 24.9489L7.67529 20.1183C7.75766 19.4056 7.52591 18.6924 7.04038 18.1642L3.74937 14.5843C2.44789 13.1686 3.19337 10.8742 5.07843 10.4939L9.84511 9.53212C10.5484 9.39022 11.1551 8.94941 11.5073 8.32444L13.895 4.08826Z" fill="#FFCF59"/>
<path d="M52.3726 4.08826C53.3168 2.413 55.7293 2.413 56.6735 4.08826L59.0612 8.32444C59.4135 8.94941 60.0202 9.39022 60.7234 9.53212L65.4901 10.4939C67.3752 10.8742 68.1206 13.1686 66.8192 14.5843L63.5282 18.1642C63.0426 18.6924 62.8109 19.4056 62.8932 20.1183L63.4515 24.9489C63.6723 26.8592 61.7206 28.2772 59.972 27.4769L55.5503 25.4532C54.898 25.1546 54.1481 25.1546 53.4957 25.4532L49.0741 27.4769C47.3255 28.2772 45.3738 26.8592 45.5945 24.9489L46.1528 20.1183C46.2352 19.4056 46.0034 18.6924 45.5179 18.1642L42.2269 14.5843C40.9254 13.1686 41.6709 10.8742 43.556 10.4939L48.3226 9.53212C49.0259 9.39022 49.6326 8.94941 49.9849 8.32444L52.3726 4.08826Z" fill="#FFCF59"/>
<path d="M90.8496 4.08826C91.7939 2.413 94.2063 2.413 95.1506 4.08826L97.5382 8.32444C97.8905 8.94941 98.4972 9.39022 99.2005 9.53212L103.967 10.4939C105.852 10.8742 106.598 13.1686 105.296 14.5843L102.005 18.1642C101.52 18.6924 101.288 19.4056 101.37 20.1183L101.929 24.9489C102.149 26.8592 100.198 28.2772 98.449 27.4769L94.0274 25.4532C93.3751 25.1546 92.6251 25.1546 91.9728 25.4532L87.5511 27.4769C85.8025 28.2772 83.8508 26.8592 84.0716 24.9489L84.6299 20.1183C84.7122 19.4056 84.4805 18.6924 83.995 18.1642L80.704 14.5843C79.4025 13.1686 80.148 10.8742 82.033 10.4939L86.7997 9.53212C87.5029 9.39022 88.1097 8.94941 88.4619 8.32444L90.8496 4.08826Z" fill="#DBDBDB"/>
<path d="M129.327 4.08826C130.271 2.413 132.684 2.413 133.628 4.08826L136.016 8.32444C136.368 8.94941 136.975 9.39022 137.678 9.53212L142.444 10.4939C144.33 10.8742 145.075 13.1686 143.774 14.5843L140.482 18.1642C139.997 18.6924 139.765 19.4056 139.848 20.1183L140.406 24.9489C140.627 26.8592 138.675 28.2772 136.926 27.4769L132.505 25.4532C131.852 25.1546 131.102 25.1546 130.45 25.4532L126.028 27.4769C124.28 28.2772 122.328 26.8592 122.549 24.9489L123.107 20.1183C123.19 19.4056 122.958 18.6924 122.472 18.1642L119.181 14.5843C117.88 13.1686 118.625 10.8742 120.51 10.4939L125.277 9.53212C125.98 9.39022 126.587 8.94941 126.939 8.32444L129.327 4.08826Z" fill="#DBDBDB"/>
<path d="M167.804 4.08826C168.748 2.413 171.161 2.413 172.105 4.08826L174.493 8.32444C174.845 8.94941 175.452 9.39022 176.155 9.53212L180.922 10.4939C182.807 10.8742 183.552 13.1686 182.251 14.5843L178.96 18.1642C178.474 18.6924 178.243 19.4056 178.325 20.1183L178.883 24.9489C179.104 26.8592 177.152 28.2772 175.404 27.4769L170.982 25.4532C170.33 25.1546 169.58 25.1546 168.927 25.4532L164.506 27.4769C162.757 28.2772 160.805 26.8592 161.026 24.9489L161.584 20.1183C161.667 19.4056 161.435 18.6924 160.95 18.1642L157.659 14.5843C156.357 13.1686 157.103 10.8742 158.988 10.4939L163.754 9.53212C164.458 9.39022 165.064 8.94941 165.417 8.32444L167.804 4.08826Z" fill="#DBDBDB"/>
</svg>
