<svg width="186" height="33" viewBox="0 0 186 33" fill="none" xmlns="http://www.w3.org/2000/svg">
<path d="M13.895 4.17926C14.8393 2.504 17.2517 2.504 18.196 4.17926L20.5836 8.41544C20.9359 9.04042 21.5426 9.48123 22.2459 9.62312L27.0126 10.5849C28.8976 10.9652 29.6431 13.2596 28.3416 14.6753L25.0506 18.2552C24.5651 18.7834 24.3333 19.4966 24.4157 20.2093L24.974 25.0399C25.1948 26.9502 23.2431 28.3682 21.4945 27.5679L17.0728 25.5442C16.4205 25.2456 15.6705 25.2456 15.0182 25.5442L10.5965 27.5679C8.84793 28.3682 6.89622 26.9502 7.11701 25.0399L7.67529 20.2093C7.75766 19.4966 7.52591 18.7834 7.04038 18.2552L3.74937 14.6753C2.44789 13.2596 3.19337 10.9652 5.07843 10.5849L9.84511 9.62312C10.5484 9.48123 11.1551 9.04042 11.5073 8.41544L13.895 4.17926Z" fill="#FFCF59"/>
<path d="M52.3726 4.17926C53.3168 2.504 55.7293 2.504 56.6735 4.17926L59.0612 8.41544C59.4135 9.04042 60.0202 9.48123 60.7234 9.62312L65.4901 10.5849C67.3752 10.9652 68.1206 13.2596 66.8192 14.6753L63.5282 18.2552C63.0426 18.7834 62.8109 19.4966 62.8932 20.2093L63.4515 25.0399C63.6723 26.9502 61.7206 28.3682 59.972 27.5679L55.5503 25.5442C54.898 25.2456 54.1481 25.2456 53.4957 25.5442L49.0741 27.5679C47.3255 28.3682 45.3738 26.9502 45.5945 25.0399L46.1528 20.2093C46.2352 19.4966 46.0034 18.7834 45.5179 18.2552L42.2269 14.6753C40.9254 13.2596 41.6709 10.9652 43.556 10.5849L48.3226 9.62312C49.0259 9.48123 49.6326 9.04042 49.9849 8.41544L52.3726 4.17926Z" fill="#DBDBDB"/>
<path d="M90.8496 4.17926C91.7939 2.504 94.2063 2.504 95.1506 4.17926L97.5382 8.41544C97.8905 9.04042 98.4972 9.48123 99.2005 9.62312L103.967 10.5849C105.852 10.9652 106.598 13.2596 105.296 14.6753L102.005 18.2552C101.52 18.7834 101.288 19.4966 101.37 20.2093L101.929 25.0399C102.149 26.9502 100.198 28.3682 98.449 27.5679L94.0274 25.5442C93.3751 25.2456 92.6251 25.2456 91.9728 25.5442L87.5511 27.5679C85.8025 28.3682 83.8508 26.9502 84.0716 25.0399L84.6299 20.2093C84.7122 19.4966 84.4805 18.7834 83.995 18.2552L80.704 14.6753C79.4025 13.2596 80.148 10.9652 82.033 10.5849L86.7997 9.62312C87.5029 9.48123 88.1097 9.04042 88.4619 8.41544L90.8496 4.17926Z" fill="#DBDBDB"/>
<path d="M129.327 4.17926C130.271 2.504 132.684 2.504 133.628 4.17926L136.016 8.41544C136.368 9.04042 136.975 9.48123 137.678 9.62312L142.444 10.5849C144.33 10.9652 145.075 13.2596 143.774 14.6753L140.482 18.2552C139.997 18.7834 139.765 19.4966 139.848 20.2093L140.406 25.0399C140.627 26.9502 138.675 28.3682 136.926 27.5679L132.505 25.5442C131.852 25.2456 131.102 25.2456 130.45 25.5442L126.028 27.5679C124.28 28.3682 122.328 26.9502 122.549 25.0399L123.107 20.2093C123.19 19.4966 122.958 18.7834 122.472 18.2552L119.181 14.6753C117.88 13.2596 118.625 10.9652 120.51 10.5849L125.277 9.62312C125.98 9.48123 126.587 9.04042 126.939 8.41544L129.327 4.17926Z" fill="#DBDBDB"/>
<path d="M167.804 4.17926C168.748 2.504 171.161 2.504 172.105 4.17926L174.493 8.41544C174.845 9.04042 175.452 9.48123 176.155 9.62312L180.922 10.5849C182.807 10.9652 183.552 13.2596 182.251 14.6753L178.96 18.2552C178.474 18.7834 178.243 19.4966 178.325 20.2093L178.883 25.0399C179.104 26.9502 177.152 28.3682 175.404 27.5679L170.982 25.5442C170.33 25.2456 169.58 25.2456 168.927 25.5442L164.506 27.5679C162.757 28.3682 160.805 26.9502 161.026 25.0399L161.584 20.2093C161.667 19.4966 161.435 18.7834 160.95 18.2552L157.659 14.6753C156.357 13.2596 157.103 10.9652 158.988 10.5849L163.754 9.62312C164.458 9.48123 165.064 9.04042 165.417 8.41544L167.804 4.17926Z" fill="#DBDBDB"/>
</svg>
