<svg width="40" height="40" viewBox="0 0 40 40" fill="none" xmlns="http://www.w3.org/2000/svg">
<path fill-rule="evenodd" clip-rule="evenodd" d="M21.5 2C21.5 1.17157 20.8284 0.5 20 0.5C19.1716 0.5 18.5 1.17157 18.5 2V11C18.5 11.8284 19.1716 12.5 20 12.5C20.8284 12.5 21.5 11.8284 21.5 11V2ZM23 20C23 21.6569 21.6569 23 20 23C18.3431 23 17 21.6569 17 20C17 18.3431 18.3431 17 20 17C21.6569 17 23 18.3431 23 20ZM26 20C26 23.3137 23.3137 26 20 26C16.6863 26 14 23.3137 14 20C14 16.6863 16.6863 14 20 14C23.3137 14 26 16.6863 26 20ZM20 27.5C20.8284 27.5 21.5 28.1716 21.5 29V38C21.5 38.8284 20.8284 39.5 20 39.5C19.1716 39.5 18.5 38.8284 18.5 38V29C18.5 28.1716 19.1716 27.5 20 27.5ZM38 21.5C38.8284 21.5 39.5 20.8284 39.5 20C39.5 19.1716 38.8284 18.5 38 18.5H29C28.1716 18.5 27.5 19.1716 27.5 20C27.5 20.8284 28.1716 21.5 29 21.5H38ZM12.5 20C12.5 20.8284 11.8284 21.5 11 21.5H2C1.17157 21.5 0.5 20.8284 0.5 20C0.5 19.1716 1.17157 18.5 2 18.5H11C11.8284 18.5 12.5 19.1716 12.5 20ZM4.19434 17.5002C5.26673 10.6657 10.6657 5.26673 17.5002 4.19434V7.24033C12.3256 8.2483 8.2483 12.3256 7.24033 17.5002H4.19434ZM22.5002 4.19434V7.24033C27.6747 8.2483 31.752 12.3256 32.76 17.5002H35.806C34.7336 10.6657 29.3347 5.26673 22.5002 4.19434ZM22.5002 32.76C27.6747 31.752 31.752 27.6747 32.76 22.5002H35.806C34.7336 29.3347 29.3347 34.7336 22.5002 35.806V32.76ZM17.5002 32.76V35.806C10.6657 34.7336 5.26673 29.3347 4.19434 22.5002H7.24033C8.2483 27.6747 12.3256 31.752 17.5002 32.76Z" fill="white"/>
</svg>
