<svg width="40" height="40" viewBox="0 0 40 40" fill="none" xmlns="http://www.w3.org/2000/svg">
<path fill-rule="evenodd" clip-rule="evenodd" d="M10 8C11.1046 8 12 7.10457 12 6C12 4.89543 11.1046 4 10 4C8.89543 4 8 4.89543 8 6C8 7.10457 8.89543 8 10 8ZM10 11C11.3272 11 12.5336 10.4829 13.4288 9.63916L15.5 11.833V39H18.5V10.6406L14.927 6.85602C14.975 6.57787 15 6.29186 15 6C15 3.23858 12.7614 1 10 1C7.23858 1 5 3.23858 5 6C5 8.76142 7.23858 11 10 11ZM8.43637 18.6823L9.5 18.9831V37H12.5V16.7139L8.92985 15.7042C8.55408 13.5985 6.71372 12 4.5 12C2.01472 12 0 14.0147 0 16.5C0 18.9853 2.01472 21 4.5 21C6.19344 21 7.6684 20.0646 8.43637 18.6823ZM24.5 15.1806L26.569 13.3703C27.2886 13.7714 28.1176 14 29 14C31.7614 14 34 11.7614 34 9C34 6.23858 31.7614 4 29 4C26.2386 4 24 6.23858 24 9C24 9.78572 24.1812 10.5291 24.5042 11.1907L21.5 13.8193V39H24.5V15.1806ZM31.1115 21.5L30 21.5V34.5H27V18.5L31.4678 18.5C32.2041 17.0183 33.7331 16 35.5 16C37.9853 16 40 18.0147 40 20.5C40 22.9853 37.9853 25 35.5 25C33.3584 25 31.5662 23.504 31.1115 21.5ZM37 20.5C37 21.3284 36.3284 22 35.5 22C34.6716 22 34 21.3284 34 20.5C34 19.6716 34.6716 19 35.5 19C36.3284 19 37 19.6716 37 20.5ZM29 11C30.1046 11 31 10.1046 31 9C31 7.89543 30.1046 7 29 7C27.8954 7 27 7.89543 27 9C27 10.1046 27.8954 11 29 11ZM6 16.5C6 17.3284 5.32843 18 4.5 18C3.67157 18 3 17.3284 3 16.5C3 15.6716 3.67157 15 4.5 15C5.32843 15 6 15.6716 6 16.5Z" fill="white"/>
</svg>
